<svg width="429.78000793457034" height="96.50921872778135" viewBox="0 0 300 67.36647839315543" class="looka-1j8o68f"><defs id="SvgjsDefs6688"><linearGradient id="SvgjsLinearGradient6693"><stop id="SvgjsStop6694" stop-color="#00ddff" offset="0"></stop><stop id="SvgjsStop6695" stop-color="#ff00d4" offset="1"></stop></linearGradient></defs><g id="SvgjsG6689" featurekey="5TMTKC-0" transform="matrix(0.8083436916142175,0,0,0.8083436916142175,0,-0.0752684907648127)" fill="#a6acec"><path xmlns="http://www.w3.org/2000/svg" class="st0" d="M80.7,35.8C80.4,36,80.1,36,79.8,36c-0.8,0-1.5-0.5-2-1.2c-0.5-1.1-0.2-2.5,1.1-2.9c6.3-3.1,7.3-6.8,7.4-7.1  c0.9-6.2,0-10.7-2.9-13.3c-6-5.2-18.2-2-18.4-2h-0.2c-1.5,0.5-3.1,0.9-4.3,1.4c1.2,0.9,2.3,2,2.9,3.7c0.5,1.1-0.2,2.5-1.2,2.9  c-0.3,0.2-0.6,0.2-0.8,0.2c-0.9,0-1.7-0.5-2-1.4c-0.5-1.4-1.5-2-2.8-2.5c-0.2,0-0.2,0-0.3,0s-0.3-0.2-0.6-0.2  c-2.5-0.3-4.9,0.2-4.9,0.3c-1.2,0.3-2.3-0.5-2.6-1.5c-0.3-1.2,0.5-2.3,1.5-2.6c1.5-0.3,3.7-0.6,5.9-0.3c1.2-1.4,3.1-2.3,4.9-2.9  c-3.1-3.6-6.8-5.7-11.1-6.3C41.7-0.9,34,3.4,30.1,6c1.2,0.9,2.6,2.5,4,4.6c0.6,1.1,0.3,2.5-0.8,3.1c-0.3,0.2-0.8,0.3-1.1,0.3  c-0.8,0-1.5-0.3-1.9-1.1c-2.3-3.7-4.8-4.6-4.9-4.6l0,0l0,0c-5.2-1.9-9.4-1.9-12.3,0.3C8.5,12.1,8,19.8,8,21c0.2,0.9,1.2,4.5,5.6,4.5  c0.2,0,0.5,0,0.6,0.2c1.2-0.8,2.3-1.1,3.2-1.2c1.2-0.2,2.3,0.6,2.6,1.9c0.2,1.2-0.6,2.3-1.7,2.6C17.9,29,14,29.8,14,34.3  c0,1.2-0.9,2.2-2.2,2.2s-2.2-0.9-2.2-2.2c0-1.9,0.5-3.4,1.1-4.6C8,28.9,6.2,26.9,5.1,25C1.9,28,0,32,0,36.4c0,4.9,2.3,9.4,6.2,12.3  c-0.3-1.4-0.8-2.8-0.8-3.4c-0.2-1.2,0.6-2.3,1.9-2.5s2.3,0.6,2.5,1.9c0.2,1.1,1.4,5.2,2.2,7.9c4.2,6.9,9,10.7,14,11  c7.1,0.3,13.3-5.9,15.7-8.6l3.6-4.8c-1.2-0.5-2.3-0.9-3.1-1.4c-1.1-0.6-1.4-2-0.6-3.1c0.6-1.1,2-1.4,3.1-0.6  c0.3,0.2,6.5,3.9,12.3-1.4c0.9-0.8,2.3-0.8,3.1,0.2c0.8,0.9,0.8,2.3-0.2,3.1c-3.1,2.9-6.5,3.9-9.6,4l-3.1,4.2  c3.6,7.7,7.1,12.2,11,13.4c5.1,1.5,11.4-2,18.5-6.6l0,0l0,0c4.2-2.5,5.6-7.3,5.6-7.4c0.3-1.2,1.5-1.9,2.8-1.5  c1.2,0.3,1.9,1.5,1.5,2.8c0,0.2-0.6,2.2-2,4.3c8-2.2,12.8-5.6,14-9.9c2-6.8-4.6-15.6-9.1-20.4C87.7,31,85.2,33.7,80.7,35.8z   M27.9,54.3c-0.5,0.5-1.1,0.8-1.7,0.8c-0.5,0-0.9-0.2-1.4-0.5c-4.5-3.7-2.5-9.9-0.5-13c0.6-1.1,2-1.4,3.1-0.6c1.1,0.6,1.4,2,0.6,3.1  c0,0-3.1,5.1-0.5,7.1C28.6,51.9,28.7,53.3,27.9,54.3z M46.2,36.3c-0.3,0.2-0.5,0.2-0.8,0.2c-0.9,0-1.7-0.6-2-1.4  c-0.2-0.3-2.3-6.2-7.3-6.3c0.2,1.2,0.2,2.6,0,4c-0.2,1.1-1.1,2-2.2,2h-0.2c-1.2-0.2-2.2-1.2-2-2.3c0.5-6.2-2-8.8-2.2-9  c-0.8-0.9-0.8-2.3,0-3.1c0.8-0.9,2.2-0.9,3.1,0c0.2,0.2,1.4,1.4,2.3,4c6.9-0.5,11.1,5.7,12.5,9.3C47.8,34.6,47.2,36,46.2,36.3z   M71.9,54.2c-3.1,3.6-8.2,3.6-8.5,3.6l0,0c-1.2,0-2.2-0.9-2.2-2.2c0-1.2,0.9-2.2,2.2-2.2c0,0,3.4,0,5.2-2.2c1.1-1.1,1.4-2.8,1.1-4.8  c-0.2-1.2,0.8-2.3,2-2.5c1.2-0.2,2.3,0.8,2.5,2C74.6,49.4,73.8,52.2,71.9,54.2z" style="fill: #a6acec;"></path><path xmlns="http://www.w3.org/2000/svg" class="st0" d="M89.7,73.6c-1.2,1.2-2.9,2.3-4.9,3.1c-1.1,0.5-2.2,0-2.8-0.9c-0.6-0.9-0.3-2.2,0.6-2.8l5.2-4.2  c0.2-0.2,0.2-0.3,0.3-0.6c0.6-2,0.3-4-0.2-5.4c-2.8,0.9-6,1.7-9.6,2.3c-3.2,2-6.5,3.9-9.4,5.2c2.2,4.3,8.5,14.4,18.2,13  c1.2-1.9,3.4-5.6,3.1-8.5C90,74.4,89.8,74,89.7,73.6z" style="fill: #a6acec;"></path></g><g id="SvgjsG6690" featurekey="7UBp9i-0" transform="matrix(4.484304702606302,0,0,4.484304702606302,92.82510702320798,-26.493272833036098)" fill="url(#SvgjsLinearGradient6693)"><path d="M10.1 20 l-1.4 0 l0 -7.6 c0 -0.9 -0.7 -1.6 -1.6 -1.6 l-1.8 0 c-1.5 0 -2.3 1.8 -2.3 1.8 l0 7.4 l-1.4 0 l0 -10.2 l0.9 0 l0.2 1.4 l0.1 0 s0.8 -1.6 2.5 -1.6 l1.8 0 c1.8 0 3 1.2 3 2.8 l0 7.6 z M20.700000000000003 20 l-0.9 0 l-0.2 -1.4 l-0.1 0 s-0.8 1.6 -2.5 1.6 l-1.6 0 c-1.9 0 -3 -1.2 -3 -2.8 l0 -0.6 c0 -1.6 1.2 -2.8 3 -2.8 l3.9 0 l0 -1.4 c0 -0.9 -0.7 -1.6 -1.6 -1.6 l-4.4 0 l0 -1.2 l4.4 0 c1.8 0 3 1.2 3 2.8 l0 7.4 z M15.400000000000002 19 l1.6 0 c1.5 0 2.3 -1.8 2.3 -1.8 l0 -2 l-3.9 0 c-0.9 0 -1.6 0.7 -1.6 1.6 l0 0.6 c0 0.9 0.7 1.6 1.6 1.6 z M22.7 11 l0 -1.2 l1.6 0 l0.6 -3 l0.8 0 l0 3 l2.9 0 l0 1.2 l-2.9 0 l0 6.2 c0 0.9 0.7 1.6 1.6 1.6 l1.9 0 l0 1.2 l-1.9 0 c-1.8 0 -3 -1.2 -3 -2.8 l0 -6.2 l-1.6 0 z M37 9.6 l0 1.3 l-1.9 0 c-1.5 0 -2.3 1.7 -2.3 1.7 l0 7.4 l-1.4 0 l0 -10.2 l0.9 0 l0.2 1.4 l0.1 0 s0.8 -1.6 2.5 -1.6 l1.9 0 z M46.2 20 l-0.9 0 l-0.2 -1.4 l-0.1 0 s-0.8 1.6 -2.5 1.6 l-1.6 0 c-1.9 0 -3 -1.2 -3 -2.8 l0 -0.6 c0 -1.6 1.2 -2.8 3 -2.8 l3.9 0 l0 -1.4 c0 -0.9 -0.7 -1.6 -1.6 -1.6 l-4.4 0 l0 -1.2 l4.4 0 c1.8 0 3 1.2 3 2.8 l0 7.4 z M40.900000000000006 19 l1.6 0 c1.5 0 2.3 -1.8 2.3 -1.8 l0 -2 l-3.9 0 c-0.9 0 -1.6 0.7 -1.6 1.6 l0 0.6 c0 0.9 0.7 1.6 1.6 1.6 z"></path></g></svg>